<svg width="28" height="24" viewBox="0 0 28 24" fill="none" xmlns="http://www.w3.org/2000/svg">
<g clip-path="url(#clip0_370_821)">
<path d="M26.626 22.4509C26.6861 22.4515 26.7457 22.4397 26.801 22.4162C26.8564 22.3927 26.9063 22.358 26.9478 22.3143C26.9892 22.2706 27.0213 22.2188 27.042 22.1621C27.0627 22.1054 27.0716 22.045 27.0682 21.9847C27.0682 21.6541 26.8697 21.4961 26.4627 21.4961H25.8049V23.2272H26.0523V22.4726H26.3563L26.3633 22.4818L26.835 23.2272H27.0996L26.592 22.4557L26.626 22.4509ZM26.3399 22.2775H26.053V21.6923H26.4166C26.6045 21.6923 26.8186 21.7231 26.8186 21.9704C26.8186 22.2548 26.6019 22.2775 26.3384 22.2775" fill="white"/>
<path d="M20.1728 20.2814H16.6648V14.7581C16.6648 13.441 16.6414 11.7456 14.8402 11.7456C13.0131 11.7456 12.7336 13.1806 12.7336 14.6622V20.2811H9.22551V8.92291H12.5932V10.4751H12.6404C12.9774 9.89577 13.4644 9.41916 14.0496 9.09607C14.6347 8.77297 15.296 8.61549 15.9632 8.64039C19.5187 8.64039 20.1743 10.9917 20.1743 14.0505L20.1728 20.2814ZM5.26729 7.37033C4.86465 7.3704 4.47103 7.25043 4.13621 7.0256C3.80139 6.80076 3.54042 6.48115 3.38628 6.10719C3.23213 5.73323 3.19173 5.32171 3.27021 4.92467C3.34869 4.52763 3.54252 4.16291 3.82717 3.87662C4.11183 3.59033 4.47453 3.39533 4.86942 3.31629C5.2643 3.23724 5.67362 3.2777 6.04564 3.43254C6.41765 3.58739 6.73564 3.84966 6.95939 4.1862C7.18314 4.52274 7.30261 4.91844 7.30268 5.32324C7.30273 5.59202 7.25011 5.85817 7.14785 6.10651C7.04559 6.35485 6.89569 6.58051 6.70669 6.7706C6.51769 6.96069 6.29328 7.11148 6.0463 7.21439C5.79933 7.31729 5.53463 7.37028 5.26729 7.37033ZM7.0213 20.2814H3.50961V8.92291H7.0213V20.2814ZM21.9217 0.00162171H1.74683C1.28892 -0.00357365 0.847669 0.174219 0.520074 0.49593C0.19248 0.817642 0.00534443 1.25695 -0.000244141 1.71732V22.085C0.00515316 22.5456 0.192179 22.9852 0.519762 23.3072C0.847345 23.6293 1.28869 23.8074 1.74683 23.8025H21.9217C22.3807 23.8083 22.8233 23.6307 23.1522 23.3086C23.4811 22.9866 23.6694 22.5465 23.6757 22.085V1.71586C23.6692 1.25457 23.4808 0.814759 23.1519 0.493056C22.823 0.171352 22.3805 -0.00593224 21.9217 0.000151565" fill="white"/>
<path d="M26.3699 20.7246C25.9431 20.7287 25.5353 20.9026 25.2356 21.2082C24.936 21.5139 24.769 21.9263 24.771 22.3555C24.7731 22.7846 24.9441 23.1954 25.2466 23.4981C25.5492 23.8008 25.9586 23.9708 26.3854 23.9708C26.8123 23.9708 27.2217 23.8008 27.5242 23.4981C27.8268 23.1954 27.9978 22.7846 27.9998 22.3555C28.0019 21.9263 27.8349 21.5139 27.5352 21.2082C27.2356 20.9026 26.8278 20.7287 26.401 20.7246H26.3699ZM26.3699 23.7849C26.09 23.7896 25.8149 23.7108 25.5796 23.5583C25.3442 23.4058 25.1591 23.1866 25.0477 22.9284C24.9362 22.6701 24.9035 22.3845 24.9535 22.1075C25.0035 21.8305 25.1342 21.5747 25.3288 21.3724C25.5235 21.17 25.7734 21.0303 26.0471 20.9708C26.3207 20.9113 26.6058 20.9347 26.8663 21.0381C27.1267 21.1415 27.3507 21.3202 27.5102 21.5516C27.6696 21.783 27.7571 22.0567 27.7618 22.3382C27.7618 22.3463 27.7618 22.354 27.7618 22.3621C27.7696 22.7313 27.6313 23.0885 27.3772 23.3552C27.1231 23.6219 26.774 23.7762 26.4068 23.7842H26.3703" fill="white"/>
</g>
<defs>
<clipPath id="clip0_370_821">
<rect width="28" height="24" fill="white"/>
</clipPath>
</defs>
</svg>
