<svg width="24" height="24" viewBox="0 0 24 24" fill="none" xmlns="http://www.w3.org/2000/svg">
<path d="M19.8462 5.59502C19.8462 4.79739 19.1997 4.15332 18.4051 4.15332C17.6104 4.15332 16.9634 4.79739 16.9634 5.59502C16.9634 6.38972 17.6104 7.03376 18.4051 7.03376C19.1997 7.03376 19.8462 6.38972 19.8462 5.59502Z" fill="white"/>
<path d="M21.7666 16.8484C21.7132 18.0186 21.5175 18.6543 21.355 19.0765C21.1367 19.6364 20.8764 20.0367 20.4542 20.4565C20.0367 20.8764 19.6363 21.1362 19.0765 21.352C18.6543 21.5169 18.0162 21.7132 16.8461 21.769C15.5811 21.8247 15.2063 21.8366 11.9985 21.8366C8.79373 21.8366 8.41591 21.8247 7.15095 21.769C5.98091 21.7132 5.34573 21.5169 4.92345 21.352C4.36067 21.1362 3.96335 20.8764 3.54347 20.4565C3.12061 20.0367 2.86028 19.6364 2.645 19.0765C2.48248 18.6543 2.28384 18.0186 2.2334 16.8484C2.17175 15.5835 2.16046 15.2027 2.16046 12.0015C2.16046 8.7937 2.17175 8.41592 2.2334 7.15093C2.28384 5.98088 2.48248 5.34575 2.645 4.91991C2.86028 4.36067 3.12061 3.96272 3.54347 3.54285C3.96335 3.12359 4.36067 2.86321 4.92345 2.64501C5.34573 2.47954 5.98091 2.2862 7.15095 2.23046C8.41591 2.17469 8.79373 2.16045 11.9985 2.16045C15.2063 2.16045 15.5811 2.17469 16.8461 2.23046C18.0162 2.2862 18.6543 2.47954 19.0765 2.64501C19.6363 2.86321 20.0367 3.12359 20.4542 3.54285C20.8764 3.96272 21.1367 4.36067 21.355 4.91991C21.5175 5.34575 21.7132 5.98088 21.7666 7.15093C21.8253 8.41592 21.8395 8.7937 21.8395 12.0015C21.8395 15.2027 21.8253 15.5835 21.7666 16.8484ZM23.9271 7.05251C23.8684 5.77388 23.6667 4.90034 23.3672 4.13948C23.0624 3.35012 22.6538 2.68116 21.9848 2.01221C21.3189 1.34623 20.6499 0.93761 19.8605 0.629238C19.0967 0.332701 18.2261 0.128677 16.9469 0.0729456C15.6677 0.0112537 15.2591 0 11.9985 0C8.7409 0 8.32937 0.0112537 7.05015 0.0729456C5.77391 0.128677 4.90388 0.332701 4.1365 0.629238C3.35012 0.93761 2.68116 1.34623 2.01519 2.01221C1.34623 2.68116 0.937607 3.35012 0.629816 4.13948C0.333277 4.90034 0.131656 5.77388 0.0699647 7.05251C0.0142331 8.33173 0 8.74091 0 12.0015C0 15.2591 0.0142331 15.6677 0.0699647 16.9469C0.131656 18.2231 0.333277 19.0961 0.629816 19.8606C0.937607 20.6469 1.34623 21.3189 2.01519 21.9848C2.68116 22.6508 3.35012 23.0624 4.1365 23.3702C4.90388 23.6667 5.77391 23.8683 7.05015 23.9271C8.32937 23.9858 8.7409 24 11.9985 24C15.2591 24 15.6677 23.9858 16.9469 23.9271C18.2261 23.8683 19.0967 23.6667 19.8605 23.3702C20.6499 23.0624 21.3189 22.6508 21.9848 21.9848C22.6538 21.3189 23.0624 20.6469 23.3672 19.8606C23.6667 19.0961 23.8684 18.2231 23.9271 16.9469C23.9858 15.6677 24 15.2591 24 12.0015C24 8.74091 23.9858 8.33173 23.9271 7.05251Z" fill="white"/>
<path d="M11.9986 15.9984C9.79066 15.9984 7.99907 14.2097 7.99907 12.0018C7.99907 9.79032 9.79066 7.99936 11.9986 7.99936C14.2071 7.99936 16.0011 9.79032 16.0011 12.0018C16.0011 14.2097 14.2071 15.9984 11.9986 15.9984ZM11.9986 5.83594C8.5951 5.83594 5.83862 8.59831 5.83862 12.0018C5.83862 15.4024 8.5951 18.1618 11.9986 18.1618C15.4021 18.1618 18.1615 15.4024 18.1615 12.0018C18.1615 8.59831 15.4021 5.83594 11.9986 5.83594Z" fill="#F2F2F3"/>
</svg>
