<svg width="24" height="24" viewBox="0 0 24 24" fill="none" xmlns="http://www.w3.org/2000/svg">
<mask id="mask0_370_804" style="mask-type:alpha" maskUnits="userSpaceOnUse" x="0" y="0" width="24" height="24">
<rect width="24" height="24" rx="8" fill="#D9D9D9"/>
</mask>
<g mask="url(#mask0_370_804)">
<path d="M8.73977 17.0163V6.81538L17.7842 11.9161L8.73977 17.0163ZM28.8581 3.60564C28.4601 2.12006 27.2875 0.950238 25.7987 0.553215C23.1001 -0.168327 12.2789 -0.168327 12.2789 -0.168327C12.2789 -0.168327 1.45772 -0.168327 -1.24093 0.553215C-2.72978 0.950238 -3.90241 2.12006 -4.30033 3.60564C-5.02344 6.29812 -5.02344 11.9158 -5.02344 11.9158C-5.02344 11.9158 -5.02344 17.5335 -4.30033 20.2261C-3.90241 21.7116 -2.72978 22.8814 -1.24093 23.2786C1.45772 24 12.2789 24 12.2789 24C12.2789 24 23.1001 24 25.7987 23.2786C27.2875 22.8814 28.4601 21.7116 28.8581 20.2261C29.5812 17.5335 29.5812 11.9158 29.5812 11.9158C29.5812 11.9158 29.5812 6.29812 28.8581 3.60564Z" fill="#FFFEFE"/>
</g>
</svg>
