<svg id="레이어_1" data-name="레이어 1" xmlns="http://www.w3.org/2000/svg" viewBox="0 0 30.95 23.73"><defs><style>.cls-1{fill:#29b7ea;}</style></defs><title>로고 확정_파비콘2</title><path class="cls-1" d="M16.43,17.41a2.15,2.15,0,0,1,4.05-.32c.77,2.11-1,4.44-4.05,5.95-3-1.51-4.78-3.84-4-5.95A2.12,2.12,0,0,1,16.43,17.41Z" transform="translate(-0.52 -4.27)"/><path class="cls-1" d="M11.39,14.64h0a1,1,0,0,1-1-1l.05-7.24a.7.7,0,0,0-.49-.2,1,1,0,0,0-.64.21v6.49a1,1,0,1,1-1.95,0V6.38A2.39,2.39,0,0,1,10,4.27a2.33,2.33,0,0,1,2.44,2.11l-.05,7.3A1,1,0,0,1,11.39,14.64Z" transform="translate(-0.52 -4.27)"/><path class="cls-1" d="M5.51,25.4a1,1,0,0,1-1-.95,2.75,2.75,0,0,0-.69-2,8.71,8.71,0,0,0-.68-.75A6.54,6.54,0,0,1,1.36,19a.19.19,0,0,1,0-.08c0-.12-.63-3-.79-3.74a1.92,1.92,0,0,1,1.34-2.09,2,2,0,0,1,2.54,1.12l.06.15,0,.17V7A2.32,2.32,0,0,1,7,5a2.26,2.26,0,0,1,2.29,2.1v5.75a1,1,0,0,1-1.95,0V7.09A.46.46,0,0,0,7,6.92a.9.9,0,0,0-.54.19v10a1.55,1.55,0,0,1-1.14,1.51,1.44,1.44,0,0,1-1.65-.76,22.84,22.84,0,0,1-1-2.83.29.29,0,0,0-.12-.13l0,0c.17.87.66,3.17.73,3.52a5,5,0,0,0,1.33,1.9,7.27,7.27,0,0,1,.86,1,4.59,4.59,0,0,1,1.07,3.05,1,1,0,0,1-.94,1Z" transform="translate(-0.52 -4.27)"/><path class="cls-1" d="M14.3,15.62a1,1,0,0,1-1-1V7.92A.41.41,0,0,0,13,7.68a.63.63,0,0,0-.46.13.17.17,0,0,0-.07.11v.16a1,1,0,0,1-1.95,0V7.92a2.15,2.15,0,0,1,.67-1.52A2.56,2.56,0,0,1,13,5.73a2.29,2.29,0,0,1,2.23,2.19v6.73A1,1,0,0,1,14.3,15.62Z" transform="translate(-0.52 -4.27)"/><path class="cls-1" d="M13,28a1,1,0,0,1-1-1V25.74H5.85V27A1,1,0,0,1,3.9,27V24.77a1,1,0,0,1,1-1H13a1,1,0,0,1,1,1V27A1,1,0,0,1,13,28Z" transform="translate(-0.52 -4.27)"/><path class="cls-1" d="M20.61,14.64a1,1,0,0,1-1-1l-.05-7.3A2.33,2.33,0,0,1,22,4.27a2.4,2.4,0,0,1,2.59,2.11v6.54a1,1,0,1,1-1.95,0V6.43A1,1,0,0,0,22,6.22a.7.7,0,0,0-.49.2l0,7.24a1,1,0,0,1-1,1Z" transform="translate(-0.52 -4.27)"/><path class="cls-1" d="M26.49,25.4h0a1,1,0,0,1-.94-1,4.59,4.59,0,0,1,1.07-3.05,7.27,7.27,0,0,1,.86-1,5,5,0,0,0,1.33-1.9c.07-.35.56-2.65.73-3.52l-.05,0a.29.29,0,0,0-.12.13,23.83,23.83,0,0,1-1,2.83,1.44,1.44,0,0,1-1.65.76,1.55,1.55,0,0,1-1.14-1.51v-10h0A1,1,0,0,0,25,6.92a.46.46,0,0,0-.34.17v5.73a1,1,0,0,1-1.95,0V7.07A2.26,2.26,0,0,1,25,5,2.32,2.32,0,0,1,27.45,7v7.5l.06-.17.06-.15a2,2,0,0,1,2.54-1.12,1.92,1.92,0,0,1,1.34,2.09c-.16.79-.76,3.62-.79,3.74a.19.19,0,0,1,0,.08,6.54,6.54,0,0,1-1.81,2.73,8.71,8.71,0,0,0-.68.75,2.75,2.75,0,0,0-.69,2A1,1,0,0,1,26.49,25.4Z" transform="translate(-0.52 -4.27)"/><path class="cls-1" d="M17.7,15.62a1,1,0,0,1-1-1V7.92A2.29,2.29,0,0,1,19,5.73a2.56,2.56,0,0,1,1.9.67,2.15,2.15,0,0,1,.67,1.52v.16a1,1,0,0,1-2,0V7.92a.17.17,0,0,0-.07-.11.63.63,0,0,0-.46-.13.41.41,0,0,0-.37.24v6.73A1,1,0,0,1,17.7,15.62Z" transform="translate(-0.52 -4.27)"/><path class="cls-1" d="M27.13,28a1,1,0,0,1-1-1V25.74H20V27a1,1,0,0,1-2,0V24.77a1,1,0,0,1,1-1h8.08a1,1,0,0,1,1,1V27A1,1,0,0,1,27.13,28Z" transform="translate(-0.52 -4.27)"/></svg>