<?xml version="1.0" encoding="utf-8"?>
<!-- Generator: Adobe Illustrator 24.0.1, SVG Export Plug-In . SVG Version: 6.00 Build 0)  -->
<svg version="1.1" id="logo" xmlns="http://www.w3.org/2000/svg" xmlns:xlink="http://www.w3.org/1999/xlink" x="0px" y="0px"
	 viewBox="0 0 140 33" style="enable-background:new 0 0 140 33;" xml:space="preserve">
<style type="text/css">
	.st0{fill:#29B7EA;}
</style>
<title>logo_header</title>
<g>
	<path class="st0" d="M21.8,23.4c-0.6-1.6-3.1-1.5-3.6,0.3c-0.4-1.7-2.9-1.9-3.5-0.3c-0.7,1.9,0.9,3.9,3.5,5.2
		C20.9,27.3,22.5,25.3,21.8,23.4z"/>
	<path class="st0" d="M15.2,29.3H9.5c-0.1-1-0.4-1.5-0.9-2.2c-0.2-0.3-0.5-0.6-0.8-0.9c-0.5-0.5-0.9-1-1.2-1.7
		c-0.1-0.3-0.5-2.3-0.6-3.1c0,0,0,0,0.1,0c0,0,0.1,0,0.1,0.1c0.7,2,0.8,2.4,0.9,2.5c0.3,0.6,0.9,0.8,1.4,0.7c0.6-0.2,1-0.7,1-1.3
		v-8.8c0-0.1,0.3-0.2,0.5-0.2c0.1,0,0.3,0.1,0.3,0.2v5c0,0.1,0,0.2,0,0.2c0.1,0.4,0.4,0.7,0.8,0.7c0.5,0,0.9-0.4,0.9-0.9v-5.7
		c0.1-0.1,0.3-0.2,0.6-0.2c0.2,0,0.4,0.1,0.4,0.2l0,6.4c0,0.5,0.4,0.9,0.8,0.9c0,0,0,0,0,0c0.5,0,0.9-0.4,0.9-0.8l0-4.8
		c0,0,0-0.1,0-0.1v-0.1c0,0,0,0,0.1-0.1c0.1,0,0.2-0.1,0.4-0.1c0.2,0,0.3,0.2,0.3,0.2v5.9c0,0.5,0.4,0.9,0.9,0.9
		c0.5,0,0.9-0.4,0.9-0.9v-5.9c0-1-0.9-1.9-2-1.9c-0.2,0-0.4,0-0.6,0c-0.3-0.8-1.2-1.3-2.1-1.3c-0.8,0-1.4,0.3-1.8,0.8
		c-0.2-0.1-0.5-0.1-0.8-0.1c-1,0-2.1,0.6-2.2,1.8c0,0,0,0,0,0v6.5c0-0.1,0-0.1,0-0.1c0,0,0-0.1-0.1-0.1c-0.6-1.1-1.6-1.2-2.2-1
		c-0.8,0.3-1.3,1.1-1.2,1.8C4.4,22.4,5,24.9,5,25c0,0,0,0,0,0.1c0.3,1.1,1,1.8,1.6,2.4C6.8,27.7,7,28,7.2,28.2
		c0.3,0.4,0.5,0.7,0.6,1.2c-0.3,0.1-0.5,0.4-0.5,0.8v2c0,0.5,0.4,0.9,0.9,0.9C8.6,33,9,32.6,9,32.1V31h5.4v1.1
		c0,0.5,0.4,0.9,0.9,0.9c0.5,0,0.9-0.4,0.9-0.9v-2C16,29.7,15.7,29.3,15.2,29.3z"/>
	<path class="st0" d="M30.2,19.9c-0.7-0.2-1.6-0.1-2.2,1c0,0,0,0.1-0.1,0.1c0,0,0,0.1,0,0.1v-6.5c0,0,0,0,0,0
		c-0.1-1.2-1.2-1.8-2.2-1.8c-0.3,0-0.5,0.1-0.8,0.1c-0.4-0.5-1.1-0.8-1.8-0.8c-0.9,0-1.8,0.5-2.1,1.3c-0.2,0-0.4-0.1-0.6,0
		c-1.1,0.1-2,0.9-2,1.9v5.9c0,0.5,0.4,0.9,0.9,0.9c0.5,0,0.9-0.4,0.9-0.9v-5.9c0-0.1,0.1-0.2,0.3-0.2c0.2,0,0.4,0.1,0.4,0.1
		c0,0,0.1,0.1,0.1,0.1v0.1c0,0,0,0.1,0,0.1l0,4.8c0,0.5,0.4,0.8,0.9,0.8c0,0,0,0,0,0c0.5,0,0.9-0.4,0.8-0.9l0-6.4
		c0.1-0.1,0.2-0.2,0.4-0.2c0.3,0,0.5,0.1,0.6,0.2v5.7c0,0.5,0.4,0.9,0.9,0.9c0.4,0,0.8-0.3,0.8-0.7c0-0.1,0-0.2,0-0.2v-5
		c0-0.1,0.2-0.2,0.3-0.2c0.2,0,0.4,0.1,0.5,0.2c0,0,0,0,0,0v8.8c0,0.6,0.4,1.2,1,1.3c0.6,0.1,1.1-0.1,1.4-0.7
		c0.1-0.1,0.2-0.5,0.9-2.5c0-0.1,0.1-0.1,0.1-0.1c0,0,0,0,0.1,0c-0.2,0.8-0.6,2.8-0.6,3.1c-0.2,0.7-0.7,1.2-1.2,1.7
		c-0.3,0.3-0.5,0.5-0.8,0.9c-0.5,0.7-0.8,1.2-0.9,2.2h-5.7c-0.5,0-0.9,0.4-0.9,0.9v2c0,0.5,0.4,0.9,0.9,0.9c0.5,0,0.9-0.4,0.9-0.9
		V31h5.4v1.1c0,0.5,0.4,0.9,0.9,0.9s0.9-0.4,0.9-0.9v-2c0-0.4-0.2-0.7-0.5-0.8c0.1-0.5,0.2-0.8,0.6-1.2c0.2-0.2,0.4-0.4,0.6-0.7
		c0.6-0.6,1.2-1.3,1.6-2.4c0,0,0,0,0-0.1c0-0.1,0.6-2.6,0.7-3.3C31.6,21,31,20.2,30.2,19.9z"/>
	<path class="st0" d="M17.8,0C14,0,10.3,1.5,7.6,4.2C4.9,7,3.4,10.6,3.4,14.4c0,1.6,0.3,3.3,0.8,4.8c0.2,0.4,0.6,0.7,1.1,0.5
		c0.4-0.2,0.7-0.6,0.5-1.1c-0.5-1.4-0.7-2.8-0.7-4.2c0-2.2,0.6-4.3,1.5-6.1c0.8,0.4,1.7,0.7,2.7,1C9.1,10.2,9,11,8.9,11.8
		c-0.1,0.5,0.3,0.9,0.8,0.9c0.5,0.1,0.9-0.3,0.9-0.8c0.1-0.7,0.2-1.5,0.4-2.2c1.8,0.4,3.8,0.6,6,0.6v2.8c0,0.5,0.4,0.9,0.9,0.9
		c0.5,0,0.9-0.4,0.9-0.9v-2.8c2.2,0,4.2-0.2,6-0.6c0.2,0.7,0.3,1.4,0.4,2.1c0,0.4,0.4,0.8,0.8,0.8c0,0,0.1,0,0.1,0
		c0.5-0.1,0.8-0.5,0.8-0.9c-0.1-0.8-0.2-1.6-0.4-2.3c1-0.3,2-0.6,2.7-1c0.9,1.8,1.5,3.8,1.5,6c0,1.5-0.2,2.9-0.7,4.2
		c-0.2,0.4,0.1,0.9,0.5,1.1c0.1,0,0.2,0,0.3,0c0.4,0,0.7-0.2,0.8-0.6c0.5-1.5,0.8-3.2,0.8-4.8c0-3.9-1.5-7.5-4.2-10.2
		C25.3,1.5,21.7,0,17.8,0z M7.5,6.9c1.2-1.7,2.8-3,4.7-4c-0.1,0.2-0.3,0.4-0.4,0.5C11,4.7,10.3,6.2,9.8,7.8C8.9,7.5,8.2,7.3,7.5,6.9
		z M11.4,8.2c0.5-1.4,1.1-2.6,1.8-3.7C14.3,3,15.6,2.1,17,1.8v7C15,8.7,13.1,8.5,11.4,8.2z M18.7,8.8v-7C20,2.1,21.3,3,22.4,4.5
		c0.7,1,1.4,2.3,1.8,3.7C22.5,8.5,20.6,8.7,18.7,8.8z M25.9,7.8c-0.5-1.6-1.2-3.1-2.1-4.3c-0.1-0.2-0.3-0.4-0.4-0.5
		c1.9,0.9,3.6,2.3,4.8,4.1C27.5,7.3,26.8,7.6,25.9,7.8z"/>
	<path class="st0" d="M52.9,7.9L52.9,7.9c-0.1,5.8-0.1,10.2-0.1,13.1c0,1.1-0.2,2-0.6,2.8c-0.9,1.5-2.2,2.2-3.8,2.2
		c-0.9,0-1.6,0-2,0c-0.4,0-0.8-0.1-1.2-0.2c-1.1-0.4-1.9-1-2.4-1.8c-0.5-0.7-0.8-1.8-0.8-3.4c0-6.3,0-10.5,0-12.7l0,0
		c-1.3,0-2.2,0-2.6,0l-0.1,0c0,5.9,0,10.3,0,13.2c0,1.4,0.3,2.7,0.9,3.9c0.3,0.6,0.7,1.1,1.3,1.7c1.3,1.3,3,1.9,5.2,1.9
		c0.6,0,1.1,0,1.4,0c1.6,0,3-0.4,4.2-1.1c1.3-0.9,2.3-2.1,2.8-3.7c0.3-0.7,0.4-1.9,0.4-3.5c0-6.2,0-10.3,0-12.3c0,0,0,0-0.1,0
		C54.3,7.9,53.4,7.9,52.9,7.9z"/>
	<path class="st0" d="M74.4,7.9L74.4,7.9c0,8.1,0,13.5,0,16.2c-0.5-0.7-0.8-1.2-0.9-1.4c-5-7.4-8.3-12.4-10-14.8c-1.5,0-2.5,0-3,0
		l-0.1,0c0,10.3,0,17.3,0,20.7c0,0,0,0,0.1,0c1.3,0,2.2,0,2.6,0l0,0c0-8.1,0-13.5,0-16.2c2.3,3.5,4.1,6.1,5.2,7.8
		c3.3,4.9,5.2,7.7,5.7,8.5c1.5,0,2.5,0,3,0l0,0c0-10.3,0-17.3,0-20.7l0,0C75.8,7.9,74.9,7.9,74.4,7.9z"/>
	<path class="st0" d="M82,7.9L82,7.9c0,10.4,0,17.3,0,20.8h0c1.3,0,2.2,0,2.7,0h0c0-10.4,0-17.3,0-20.8h0C83.4,7.9,82.5,7.9,82,7.9z
		"/>
	<path class="st0" d="M98.4,10.6c1.9,0,3.5,0.7,5,2.2c0.5,0.6,0.9,1.1,1.1,1.6c1.5-0.8,2.3-1.3,2.4-1.3c-0.3-0.6-0.8-1.3-1.5-2.1
		c-2-2.1-4.4-3.1-7-3.1h0c-2.7,0-5.1,1.1-7.2,3.3c-1.8,2.1-2.6,4.4-2.6,7c0,0.1,0,0.1,0,0.1c0,2.6,0.9,4.9,2.6,7
		c2.1,2.2,4.5,3.3,7.2,3.3c2.8,0,5.2-1.1,7.3-3.4c0.5-0.7,1-1.3,1.3-1.9c0,0,0-0.1,0-0.1c-1.1-0.5-1.9-1-2.4-1.2
		c-0.3,0.5-0.7,1.1-1.3,1.8c-1.4,1.4-3,2-4.7,2c-0.1,0-0.2,0-0.3,0c-1.5,0-3-0.5-4.3-1.6c-1.8-1.7-2.7-3.7-2.7-6
		c0-2,0.7-3.8,2.1-5.4C94.8,11.3,96.5,10.6,98.4,10.6z"/>
	<path class="st0" d="M110.3,7.9c0,10.4,0,17.3,0,20.8h0c5.6,0,9.3,0,11.2,0c0-1.4,0-2.3,0-2.7c-4.2,0-7,0-8.4,0c0-3.2,0-5.3,0-6.3
		c3.3,0,5.6,0,6.7,0l0,0c0-1.3,0-2.2,0-2.7l0,0c-3.3,0-5.6,0-6.7,0c0-3.1,0-5.2,0-6.3c4.2,0,7,0,8.4,0c0-1.4,0-2.3,0-2.7
		C115.9,7.9,112.2,7.9,110.3,7.9L110.3,7.9z"/>
	<path class="st0" d="M136.6,10.6c0-1.4,0-2.3,0-2.7c-5.6,0-9.3,0-11.2,0h0c0,10.4,0,17.3,0,20.8h0c1.3,0,2.2,0,2.7,0h0
		c0-4.5,0-7.5,0-9c3.4,0,5.7,0,6.8,0c0-1.4,0-2.3,0-2.7c-3.4,0-5.7,0-6.8,0c0-3.1,0-5.2,0-6.3C132.4,10.6,135.2,10.6,136.6,10.6z"/>
</g>
</svg>
